<?xml version="1.0" encoding="UTF-8" standalone="no"?>
<!-- Created with Inkscape (http://www.inkscape.org/) -->

<svg
   xmlns:dc="http://purl.org/dc/elements/1.1/"
   xmlns:cc="http://creativecommons.org/ns#"
   xmlns:rdf="http://www.w3.org/1999/02/22-rdf-syntax-ns#"
   xmlns:svg="http://www.w3.org/2000/svg"
   xmlns="http://www.w3.org/2000/svg"
   xmlns:sodipodi="http://sodipodi.sourceforge.net/DTD/sodipodi-0.dtd"
   xmlns:inkscape="http://www.inkscape.org/namespaces/inkscape"
   width="282.18863"
   height="282.70361"
   id="svg2"
   version="1.1"
   inkscape:version="0.48.1 "
   sodipodi:docname="angry face.svg">
  <defs
     id="defs4" />
  <sodipodi:namedview
     id="base"
     pagecolor="#ffffff"
     bordercolor="#666666"
     borderopacity="1.0"
     inkscape:pageopacity="0.0"
     inkscape:pageshadow="2"
     inkscape:zoom="1"
     inkscape:cx="251.06384"
     inkscape:cy="184.01744"
     inkscape:document-units="px"
     inkscape:current-layer="layer1"
     showgrid="false"
     inkscape:window-width="1374"
     inkscape:window-height="878"
     inkscape:window-x="58"
     inkscape:window-y="-8"
     inkscape:window-maximized="1"
     fit-margin-top="10"
     fit-margin-left="10"
     fit-margin-bottom="10"
     fit-margin-right="10" />
  <metadata
     id="metadata7">
    <rdf:RDF>
      <cc:Work
         rdf:about="">
        <dc:format>image/svg+xml</dc:format>
        <dc:type
           rdf:resource="http://purl.org/dc/dcmitype/StillImage" />
        <dc:title />
      </cc:Work>
    </rdf:RDF>
  </metadata>
  <g
     inkscape:label="Layer 1"
     inkscape:groupmode="layer"
     id="layer1"
     transform="translate(-85.400769,-352.86382)">
    <g
       id="g3818">
      <g
         transform="matrix(0.79760775,0,0,0.79917437,19.428631,125.45908)"
         id="g3785">
        <path
           sodipodi:type="arc"
           style="fill:#d40000;fill-opacity:1;stroke:#2b0000;stroke-width:4"
           id="path2985"
           sodipodi:cx="259.60919"
           sodipodi:cy="461.42294"
           sodipodi:rx="160.61426"
           sodipodi:ry="160.61426"
           d="m 420.22345,461.42294 c 0,88.70481 -71.90945,160.61426 -160.61426,160.61426 -88.7048,0 -160.614256,-71.90945 -160.614256,-160.61426 0,-88.7048 71.909456,-160.61425 160.614256,-160.61425 88.70481,0 160.61426,71.90945 160.61426,160.61425 z" />
      </g>
      <path
         id="path3166"
         d="m 206.99108,367.3342 c -61.49224,9.41427 -108.599282,62.64929 -108.599282,126.8939 0,65.06628 48.321182,118.79922 110.967182,127.1936 -81.97404,-35.75051 -132.886809,-158.65151 -2.3679,-254.0875 z"
         style="fill:#af0000;fill-opacity:1;stroke:none"
         inkscape:connector-curvature="0" />
      <path
         sodipodi:nodetypes="sssss"
         inkscape:connector-curvature="0"
         id="path2987"
         d="m 326.40241,539.02098 c 2.29434,74.30973 -45.81228,11.70567 -102.32459,11.70567 -56.51232,0 -96.47309,56.85766 -102.32459,-11.70567 -4.50867,-52.82905 44.20086,-25.42958 100.71318,-25.42958 56.51231,0 102.32819,-26.6446 103.936,25.42958 z"
         style="fill:#2b0000;fill-opacity:1;stroke:#2b0000;stroke-width:3.19356275" />
      <path
         id="path3035"
         d="m 147.49453,506.49044 c -13.83141,0.13654 -23.15571,4.34258 -25.4736,18.50588 0.53341,2.32762 1.08443,4.64678 1.54536,6.91785 4.81487,11.09322 20.54472,13.54092 29.71089,6.46832 7.48431,-1.25667 17.61495,0.36587 22.28317,-4.29556 6.99403,4.69948 15.36834,3.56926 22.53242,0.17481 8.21129,-2.54059 16.58064,8.07842 23.42972,-0.49948 7.1698,-10.42968 15.67189,3.38105 24.50152,-0.79917 5.42018,-0.43102 4.99207,-11.23083 6.15653,-2.47245 5.11653,6.97159 16.88407,5.89015 22.85645,0.54943 6.44824,-7.58764 5.81087,8.07369 14.10769,5.04479 6.55062,0.10926 13.77812,-5.26792 12.88635,-12.36223 3.74816,-5.35986 -0.76625,9.54287 5.1346,9.91476 7.70213,4.98526 14.34578,-1.85143 17.07379,-9.2904 -9.84814,-31.75697 -51.58699,-10.76388 -101.76977,-10.76388 -18.32606,0 -35.81096,-2.87751 -50.94719,-4.96987 0.87051,2.75254 -0.99758,2.48283 -0.84746,-0.12487 -8.59614,-1.17771 -16.43862,-2.06449 -23.18047,-1.99793 z m -4.03789,3.02187 c 0.7786,3.92075 6.75259,14.43217 2.71685,14.58494 -1.76004,-4.66969 -1.54376,-9.78126 -2.71685,-14.58494 z m 108.00107,4.0708 c 0.98583,0.71448 -0.98582,0.71449 0,0 z m -50.82257,12.81176 c 1.07449,0.83518 -1.2857,0.99227 0,0 z m -50.69794,4.94489 c 1.69355,0.41473 -0.96478,1.19217 0,0 z"
         style="fill:#ffffff;fill-opacity:1;stroke:none"
         inkscape:connector-curvature="0" />
      <path
         id="path3039"
         d="m 235.10675,530.46567 c -0.79961,0.0364 -1.60948,0.26891 -2.39282,0.7742 -6.81483,6.99832 -16.61517,0.57459 -24.77569,2.2227 -7.45926,-1.01557 -5.75429,12.10883 -7.9013,11.56305 -1.34194,-9.47502 -13.55749,-18.58402 -21.93422,-11.21341 -6.84401,7.20306 -2.11966,17.86509 3.68894,23.92528 -1.56136,5.62755 -4.75372,-6.19074 -5.80758,-8.39133 -2.44487,-10.4022 -14.58204,-19.95263 -23.2054,-9.44025 -6.90264,8.28385 -16.60813,-3.46662 -23.40481,5.14469 -7.33351,6.40979 -3.51626,16.52044 1.24627,23.12611 0.0607,0.0898 0.11264,0.18583 0.17447,0.27471 15.79327,16.25004 49.60908,-17.73168 93.29518,-17.73168 42.29681,0 79.86762,35.06521 95.13965,21.55274 2.63481,-9.80043 0.0167,-20.1212 -2.29312,-29.69433 -4.337,-10.29626 -21.0963,-11.6649 -26.02195,-1.22373 -4.26902,7.96658 -4.61516,-6.83458 -11.29114,-4.89495 -4.84292,-2.20067 -10.14604,3.95421 -11.64008,4.72013 -5.64466,-10.19517 -19.02826,-1.6874 -26.34598,-7.59216 -1.76451,-1.56248 -4.13158,-3.23116 -6.53042,-3.12177 z m -79.91032,28.6454 c 0.76797,-0.002 -1.37688,1.61939 -0.52343,0.12487 0.2459,-0.0798 0.41371,-0.12456 0.52343,-0.12487 z m 129.43678,1.79814 c 0.078,-0.023 0.25583,0.0262 0.5982,0.1998 0.70304,1.36184 -0.93609,-0.10011 -0.5982,-0.1998 z"
         style="fill:#ffffff;fill-opacity:1;stroke:none"
         inkscape:connector-curvature="0" />
      <path
         style="fill:none;stroke:#2b0000;stroke-width:4"
         d="m 326.40241,539.02098 c 2.29434,74.30973 -45.81228,11.70567 -102.32459,11.70567 -56.51232,0 -96.47309,56.85766 -102.32459,-11.70567 -4.50867,-52.82905 44.20086,-25.42958 100.71318,-25.42958 56.51231,0 102.32819,-26.6446 103.936,25.42958 z"
         id="path3102"
         inkscape:connector-curvature="0"
         sodipodi:nodetypes="sssss" />
      <path
         inkscape:connector-curvature="0"
         id="path3128"
         d="m 219.0521,425.02827 c 0.37295,7.40072 -1.91476,16.47569 -9.40726,19.56389 -12.01524,4.10895 -26.594,1.20086 -35.3881,-8.1693 -5.07343,-6.13659 -7.36933,-14.41329 -6.44052,-22.30404 -1.25037,6.20706 2.77734,11.75608 5.72226,16.82108 5.23843,6.26495 13.02228,9.48122 20.3462,12.58004 5.7473,1.73259 10.89133,-2.08776 15.0226,-5.60599 3.36564,-2.86783 7.02839,-5.68488 9.36585,-9.48302 0.48561,-1.06472 0.78801,-2.22684 0.77895,-3.40266 z"
         style="fill:#800000;fill-opacity:1;stroke:none" />
      <path
         inkscape:connector-curvature="0"
         id="path3130"
         d="m 230.12505,425.82682 c 3.85083,4.34601 4.69884,10.72758 9.27089,14.52026 4.63128,6.42464 13.5908,6.43098 20.58032,4.85757 10.61014,-1.75641 20.15873,-8.34617 26.10824,-17.24924 2.18105,-1.71157 6.59625,-8.251 2.52848,-8.87878 -6.4103,6.0953 -13.5303,11.73904 -21.7989,15.04157 -4.8638,1.94622 -10.15386,2.06499 -15.10461,3.68395 -4.59402,1.29859 -9.90357,0.49471 -13.16142,-3.2638 -2.86654,-2.84173 -4.83146,-6.65344 -8.423,-8.71153 z"
         style="fill:#800000;fill-opacity:1;stroke:none" />
      <path
         transform="matrix(0.84774051,0,0,0.90834175,9.1113993,84.376869)"
         sodipodi:type="arc"
         style="fill:#800000;fill-opacity:1;stroke:none"
         id="path3203"
         sodipodi:cx="180.31223"
         sodipodi:cy="405.86456"
         sodipodi:rx="22.728432"
         sodipodi:ry="22.223356"
         d="m 203.04066,405.86456 c 0,12.27362 -10.17587,22.22336 -22.72843,22.22336 -12.55257,0 -22.72844,-9.94974 -22.72844,-22.22336 0,-12.27362 10.17587,-22.22335 22.72844,-22.22335 12.55256,0 22.72843,9.94973 22.72843,22.22335 z" />
      <path
         transform="matrix(0.79760775,0,0,0.79917437,19.428631,125.45908)"
         d="m 203.04066,405.86456 c 0,12.27362 -10.17587,22.22336 -22.72843,22.22336 -12.55257,0 -22.72844,-9.94974 -22.72844,-22.22336 0,-12.27362 10.17587,-22.22335 22.72844,-22.22335 12.55256,0 22.72843,9.94973 22.72843,22.22335 z"
         sodipodi:ry="22.223356"
         sodipodi:rx="22.728432"
         sodipodi:cy="405.86456"
         sodipodi:cx="180.31223"
         id="path3116"
         style="fill:#000000;fill-opacity:1;stroke:none"
         sodipodi:type="arc" />
      <path
         d="m 203.04066,405.86456 c 0,12.27362 -10.17587,22.22336 -22.72843,22.22336 -12.55257,0 -22.72844,-9.94974 -22.72844,-22.22336 0,-12.27362 10.17587,-22.22335 22.72844,-22.22335 12.55256,0 22.72843,9.94973 22.72843,22.22335 z"
         sodipodi:ry="22.223356"
         sodipodi:rx="22.728432"
         sodipodi:cy="405.86456"
         sodipodi:cx="180.31223"
         id="path3205"
         style="fill:#800000;fill-opacity:1;stroke:none"
         sodipodi:type="arc"
         transform="matrix(0.86027372,0,0,0.92118496,131.58924,78.650796)" />
      <path
         transform="matrix(0.79760775,0,0,0.79917437,144.31298,125.45908)"
         sodipodi:type="arc"
         style="fill:#000000;fill-opacity:1;stroke:none"
         id="path3118"
         sodipodi:cx="180.31223"
         sodipodi:cy="405.86456"
         sodipodi:rx="22.728432"
         sodipodi:ry="22.223356"
         d="m 203.04066,405.86456 c 0,12.27362 -10.17587,22.22336 -22.72843,22.22336 -12.55257,0 -22.72844,-9.94974 -22.72844,-22.22336 0,-12.27362 10.17587,-22.22335 22.72844,-22.22335 12.55256,0 22.72843,9.94973 22.72843,22.22335 z" />
      <path
         transform="matrix(0.79760775,0,0,0.79917437,19.428631,125.45908)"
         sodipodi:type="arc"
         style="fill:none;stroke:#2b0000;stroke-width:7.51511765"
         id="path3201"
         sodipodi:cx="259.60919"
         sodipodi:cy="461.42294"
         sodipodi:rx="160.61426"
         sodipodi:ry="160.61426"
         d="m 420.22345,461.42294 c 0,88.70481 -71.90945,160.61426 -160.61426,160.61426 -88.7048,0 -160.614256,-71.90945 -160.614256,-160.61426 0,-88.7048 71.909456,-160.61425 160.614256,-160.61425 88.70481,0 160.61426,71.90945 160.61426,160.61425 z" />
    </g>
  </g>
</svg>
